<?xml version="1.0" standalone="yes"?>
<svg xmlns="http://www.w3.org/2000/svg" width="160" height="160">
<path style="fill:#010101; stroke:none;" d="M0 0L0 160L82 160C67.6666 142.237 44.57 128.21 27 113.586C21.742 109.21 8.3543 101.812 6.59799 94.9853C5.5331 90.8464 10.3692 86.7724 12.7284 84C20.3685 75.0217 27.9672 66.005 35.5756 57C47.4062 42.9978 59.3266 29.0664 71.0802 15C74.0922 11.3953 79.5036 1.72096 85.0039 2.4429C90.5806 3.17487 96.8412 10.7812 101 14.2469C114.462 25.4648 127.495 37.0916 141 48.25C143.363 50.2028 158.858 60.7833 156.079 64.2485C154.143 66.6621 149.331 61.5304 148 60.4344C140.573 54.319 132.886 45.7623 124 42L105 132L125.424 109L155 73L156 73C158.627 81.4113 146.329 90.9238 141.246 97C123.998 117.618 104.85 137.551 90 160L160 160L160 0L0 0z"/>
<path style="fill:#cae3ea; stroke:none;" d="M79 5L84 3L85 18L86 18L86 2L79 5z"/>
<path style="fill:#a4abb5; stroke:none;" d="M86 2L88 4L86 2z"/>
<path style="fill:#51b1f9; stroke:none;" d="M82 3C69.9046 21.2853 52.3796 43.4632 36 58L37 61L34 61L29.7083 71.6998L38 104L40 103L40 104L41 111C53.9283 111 67.1683 109.8 80 108.285C83.2847 107.898 89.6383 109.17 91.9715 106.258C95.7449 101.548 91.1981 82.8896 90.4244 77C87.273 53.0102 84.0668 27.1893 84 3L82 3z"/>
<path style="fill:#69d6f7; stroke:none;" d="M85 3L85 23L86 23L86 19L87 19L86 34L87 34L87 32L88 32L87 45L88 45L88 43L89 43L88 56L89 56L89 53L90 53L89 66L90 66L90 63L91 63L90 78L91 78L91 73L92 73L91 88L92 88L92 86L93 86L92 100L93 100L93 97L94 97L98 142L99 142C102.506 115.966 109.849 89.6406 115.65 64C117.315 56.6453 123.962 40.3525 121.357 33.2863C119.948 29.4639 115.001 26.5755 112 24.081C103.688 17.1717 94.8255 7.50064 85 3z"/>
<path style="fill:#cae3ea; stroke:none;" d="M88 3L93 8L93 7L88 3z"/>
<path style="fill:#a4abb5; stroke:none;" d="M81 4L82 5L81 4M79.6667 5.33333L80.3333 5.66667L79.6667 5.33333z"/>
<path style="fill:#cae3ea; stroke:none;" d="M78 6L74 11L80 6L78 6z"/>
<path style="fill:#a4abb5; stroke:none;" d="M91 6L92 7L91 6M77 7L78 8L77 7M93 8L94 9L93 8z"/>
<path style="fill:#cae3ea; stroke:none;" d="M94 8L99 13L99 12L94 8z"/>
<path style="fill:#69d6f7; stroke:none;" d="M77 9L78 10L77 9M84 9L84 12L85 12L84 9z"/>
<path style="fill:#a4abb5; stroke:none;" d="M74 12L77 10L74 12M97 11L98 12L97 11z"/>
<path style="fill:#cae3ea; stroke:none;" d="M73 12L64 25L58 30L75 12L73 12z"/>
<path style="fill:#a4abb5; stroke:none;" d="M72 13L73 14L72 13M99 13L101 15L99 13z"/>
<path style="fill:#cae3ea; stroke:none;" d="M100 13L101 14L100 13M101 14L105 18L101 14z"/>
<path style="fill:#a4abb5; stroke:none;" d="M70.3333 16.6667L70.6667 17.3333L70.3333 16.6667M105 18L107 20L105 18z"/>
<path style="fill:#cae3ea; stroke:none;" d="M106 18L107 19L106 18z"/>
<path style="fill:#a4abb5; stroke:none;" d="M68 19L69 20L68 19z"/>
<path style="fill:#cae3ea; stroke:none;" d="M86 19L86 29L87 29L86 19M107 19L110 22L107 19z"/>
<path style="fill:#a4abb5; stroke:none;" d="M66 20L67 21L66 20M108 21L109 22L108 21M66 22L67 23L66 22z"/>
<path style="fill:#cae3ea; stroke:none;" d="M110 22L111 23L110 22z"/>
<path style="fill:#69d6f7; stroke:none;" d="M65 23L66 24L65 23z"/>
<path style="fill:#cae3ea; stroke:none;" d="M111 23L111 24L116 27L111 23z"/>
<path style="fill:#a4abb5; stroke:none;" d="M63 24L64 25L63 24M112 24L113 25L112 24M61 26L62 27L61 26M114 26L115 27L114 26M116 27L117 28L116 27z"/>
<path style="fill:#cae3ea; stroke:none;" d="M117 27L122 32L122 31L117 27z"/>
<path style="fill:#69d6f7; stroke:none;" d="M61 28L62 29L61 28z"/>
<path style="fill:#a4abb5; stroke:none;" d="M58 31L61 29L58 31M118 29L119 30L118 29M120 30L121 31L120 30z"/>
<path style="fill:#cae3ea; stroke:none;" d="M53 38L59 31L53 38M87 32L87 42L88 42L87 32z"/>
<path style="fill:#a4abb5; stroke:none;" d="M122.333 32.6667L122.667 33.3333L122.333 32.6667z"/>
<path style="fill:#cae3ea; stroke:none;" d="M123 33L111.576 82L99 142L98 142L94 97L93 97L93 108L84 108L84 109L92.3966 110.603L94.1698 119L95.5625 144L85.9961 154.114L72 144.247L36 115L36 114L82 110L82 109C67.849 109 47.4554 115.99 34 111.776C23.9716 108.636 17.9311 96.8464 8 93L10 87L15 81L20 77C15.2824 79.2522 9.8803 84.7932 9 90L5 95L22 108L28 113C30.169 117.509 35.0334 122.205 40 123L45 127L51 132L57 137L63 142L69 147C70.6719 150.386 72.1941 151.833 76 152L80 156C83.1359 161.981 91.8157 160.556 93 154L98 148L112 132C109.8 132.755 103.58 134.198 106 137L106 138L102 138L105 134L105 124L106 119L113 96L114 82L115 78L122 54L123 41L130 44C131.525 47.242 133.234 50.2573 137 49C137.79 51.3135 139.2 55.6032 142 54L143 54C143.865 57.0477 144.717 59.1427 148 58C149.617 62.7379 152.097 64.9835 157 66L157 61L156 61L157 63L156 63C145.247 54.1587 130.229 44.9672 123 33z"/>
<path style="fill:#a4abb5; stroke:none;" d="M56 34L57 35L56 34z"/>
<path style="fill:#69d6f7; stroke:none;" d="M123 34C125.271 38.0318 128.372 41.2476 133 42L134 43L133 45L150 56L150 55L145 53C141.27 45.7556 130.106 37.9575 123 34z"/>
<path style="fill:#51b1f9; stroke:none;" d="M124 34L125 35L124 34z"/>
<path style="fill:#a4abb5; stroke:none;" d="M54 35L55 36L54 35z"/>
<path style="fill:#69d6f7; stroke:none;" d="M55 35L56 36L55 35M54 36L55 37L54 36z"/>
<path style="fill:#a4abb5; stroke:none;" d="M126 36L127 37L126 36M52.3333 37.6667L52.6667 38.3333L52.3333 37.6667z"/>
<path style="fill:#cae3ea; stroke:none;" d="M51 38L47 43L51 38z"/>
<path style="fill:#a4abb5; stroke:none;" d="M126 38L127 39L126 38z"/>
<path style="fill:#51b1f9; stroke:none;" d="M128 38L131 40L131 39L128 38z"/>
<path style="fill:#cae3ea; stroke:none;" d="M129 38L130 39L129 38z"/>
<path style="fill:#a4abb5; stroke:none;" d="M50 39L51 40L50 39z"/>
<path style="fill:#69d6f7; stroke:none;" d="M50 41L51 42L50 41z"/>
<path style="fill:#a4abb5; stroke:none;" d="M123.333 41.6667L123.667 42.3333L123.333 41.6667M126 41L127 42L126 41M47 44L50 42L47 44M128 42L129 43L128 42z"/>
<path style="fill:#51b1f9; stroke:none;" d="M132 42L134 44L132 42z"/>
<path style="fill:#cae3ea; stroke:none;" d="M88 43L88 52L89 52L88 43z"/>
<path style="fill:#a4abb5; stroke:none;" d="M132 43L133 44L132 43z"/>
<path style="fill:#cae3ea; stroke:none;" d="M135 43L136 44L135 43M42 51L36 56L48 45C44.2929 44.92 42.5858 47.596 42 51z"/>
<path style="fill:#a4abb5; stroke:none;" d="M129 44L130 45L129 44z"/>
<path style="fill:#cae3ea; stroke:none;" d="M136 44L137 45L136 44z"/>
<path style="fill:#a4abb5; stroke:none;" d="M46 45L47 46L46 45M131 45L131 46L136 49L131 45M135 46L136 47L135 46z"/>
<path style="fill:#51b1f9; stroke:none;" d="M137 46L138 47L137 46M139 47L140 48L139 47z"/>
<path style="fill:#cae3ea; stroke:none;" d="M140 47L141 48L140 47z"/>
<path style="fill:#a4abb5; stroke:none;" d="M43.3333 48.6667L43.6667 49.3333L43.3333 48.6667z"/>
<path style="fill:#69d6f7; stroke:none;" d="M44 48L45 49L44 48z"/>
<path style="fill:#a4abb5; stroke:none;" d="M141 48L142 49L141 48M136.333 49.6667L136.667 50.3333L136.333 49.6667z"/>
<path style="fill:#51b1f9; stroke:none;" d="M140 49L141 50L140 49z"/>
<path style="fill:#a4abb5; stroke:none;" d="M41 50L42 51L41 50M121.333 50.6667L121.667 51.3333L121.333 50.6667M137 51L138 52L137 51z"/>
<path style="fill:#51b1f9; stroke:none;" d="M143 51L144 52L143 51z"/>
<path style="fill:#a4abb5; stroke:none;" d="M39 52L40 53L39 52M139 52L140 53L139 52z"/>
<path style="fill:#51b1f9; stroke:none;" d="M145 52L146 53L145 52z"/>
<path style="fill:#69d6f7; stroke:none;" d="M40 53L41 54L40 53z"/>
<path style="fill:#cae3ea; stroke:none;" d="M89 53L89 62L90 62L89 53z"/>
<path style="fill:#a4abb5; stroke:none;" d="M141 53L142 54L141 53M144 53L145 54L144 53z"/>
<path style="fill:#69d6f7; stroke:none;" d="M39 54L40 55L39 54z"/>
<path style="fill:#a4abb5; stroke:none;" d="M120 54L121 55L120 54M142.333 54.6667L142.667 55.3333L142.333 54.6667M148 54L149 55L148 54M37 55L36 57L38 57L37 55z"/>
<path style="fill:#69d6f7; stroke:none;" d="M38 55L39 56L38 55z"/>
<path style="fill:#a4abb5; stroke:none;" d="M146 55L147 56L146 55M120 56L121 57L120 56M144 56L145 57L144 56z"/>
<path style="fill:#51b1f9; stroke:none;" d="M148 56L148 57L156 62L148 56z"/>
<path style="fill:#cae3ea; stroke:none;" d="M30 63L37 57L30 63z"/>
<path style="fill:#69d6f7; stroke:none;" d="M37 57L38 58L37 57z"/>
<path style="fill:#a4abb5; stroke:none;" d="M146 57L147 58L146 57z"/>
<path style="fill:#69d6f7; stroke:none;" d="M149 57L150 58L149 57M152 57L153 58L152 57z"/>
<path style="fill:#a4abb5; stroke:none;" d="M147.333 58.6667L147.667 59.3333L147.333 58.6667M150 58L151 59L150 58z"/>
<path style="fill:#69d6f7; stroke:none;" d="M151 58L152 59L151 58M153 58L154 59L153 58M35 59L37 61L37 59L35 59M154 59L155 60L154 59M34 60L35 61L34 60z"/>
<path style="fill:#a4abb5; stroke:none;" d="M148 60L149 61L148 60z"/>
<path style="fill:#69d6f7; stroke:none;" d="M153 60L155 62L153 60M33 61L8 93L33 111.948L48 112L48 111L41 111L40 103L38 104L30.2215 71.7145L33 61z"/>
<path style="fill:#a4abb5; stroke:none;" d="M150 61L153 64L150 61M153 61L154 62L153 61M32 62L33 63L32 62z"/>
<path style="fill:#69d6f7; stroke:none;" d="M155 62L156 63L155 62z"/>
<path style="fill:#a4abb5; stroke:none;" d="M156 62L157 63L156 62M30.6667 63.3333L31.3333 63.6667L30.6667 63.3333z"/>
<path style="fill:#cae3ea; stroke:none;" d="M90 63L90 73L91 73L90 63M29 64L26 70L19 76L21 74L26 68L31 64L29 64z"/>
<path style="fill:#a4abb5; stroke:none;" d="M118 64L119 65L118 64M156 64L157 65L156 64M28 65L29 66L28 65M154.667 65.3333L155.333 65.6667L154.667 65.3333M26 68L27 69L26 68M117 68L117 71L118 71L117 68M25 69L26 70L25 69z"/>
<path style="fill:#cae3ea; stroke:none;" d="M91 73L91 83L92 83L91 73z"/>
<path style="fill:#51b1f9; stroke:none;" d="M155 73L154 77L155 77L155 73z"/>
<path style="fill:#a4abb5; stroke:none;" d="M21 74L22 75L21 74z"/>
<path style="fill:#69d6f7; stroke:none;" d="M154 74L153 78L154 78L154 74z"/>
<path style="fill:#cae3ea; stroke:none;" d="M156 74L157 78L158 78L156 74M153 75L154 76L153 75z"/>
<path style="fill:#a4abb5; stroke:none;" d="M156 75L150 83L156 79L157 79L156 75M19.6667 76.3333L20.3333 76.6667L19.6667 76.3333z"/>
<path style="fill:#cae3ea; stroke:none;" d="M152 76L153 77L152 76z"/>
<path style="fill:#51b1f9; stroke:none;" d="M152 77L151 79L153 79L152 77z"/>
<path style="fill:#cae3ea; stroke:none;" d="M155 77C151.421 82.3436 143.84 86.1031 144 93L141 92L140 98C144.577 94.6315 157.703 82.8234 155 77z"/>
<path style="fill:#a4abb5; stroke:none;" d="M115 78L116 79L115 78z"/>
<path style="fill:#69d6f7; stroke:none;" d="M150 79L150 82L149 83L147 82L137 95C143.412 92.9395 149.004 84.8069 152 79L150 79z"/>
<path style="fill:#a4abb5; stroke:none;" d="M15 81L16 82L15 81z"/>
<path style="fill:#cae3ea; stroke:none;" d="M148 81L149 82L148 81z"/>
<path style="fill:#51b1f9; stroke:none;" d="M149 81L150 82L149 81z"/>
<path style="fill:#a4abb5; stroke:none;" d="M114 82L115 83L114 82z"/>
<path style="fill:#51b1f9; stroke:none;" d="M148 82L149 83L148 82z"/>
<path style="fill:#a4abb5; stroke:none;" d="M12 84L13 85L12 84M114 84L115 85L114 84z"/>
<path style="fill:#cae3ea; stroke:none;" d="M92 86L92 96L93 96L92 86z"/>
<path style="fill:#a4abb5; stroke:none;" d="M146 86L147 87L146 86M148 86L145 90L148 86M10 87L11 88L10 87z"/>
<path style="fill:#51b1f9; stroke:none;" d="M33 87L34 88L33 87M144 87L145 88L144 87z"/>
<path style="fill:#cae3ea; stroke:none;" d="M142 88L143 89L142 88z"/>
<path style="fill:#a4abb5; stroke:none;" d="M8 89L9 90L8 89z"/>
<path style="fill:#51b1f9; stroke:none;" d="M141 89L142 90L141 89z"/>
<path style="fill:#a4abb5; stroke:none;" d="M112 91L112 94L113 94L112 91M142 91L142 93L144 93L142 91M141 93L142 94L141 93M140 94L141 95L140 94M6 95L7 96L6 95z"/>
<path style="fill:#cae3ea; stroke:none;" d="M136 95L137 96L136 95z"/>
<path style="fill:#51b1f9; stroke:none;" d="M137.667 95.3333L138.333 95.6667L137.667 95.3333z"/>
<path style="fill:#a4abb5; stroke:none;" d="M139 95L135 102C137.915 100.179 140.154 98.5744 139 95M111 96L111 99L112 99L111 96z"/>
<path style="fill:#69d6f7; stroke:none;" d="M133 100L134 101L138 96L133 100z"/>
<path style="fill:#a4abb5; stroke:none;" d="M8 97L9 98L8 97z"/>
<path style="fill:#cae3ea; stroke:none;" d="M136 98L137 99L136 98M139 99L140 100L139 99z"/>
<path style="fill:#a4abb5; stroke:none;" d="M132 100L133 101L132 100z"/>
<path style="fill:#51b1f9; stroke:none;" d="M133.333 100.667L133.667 101.333L133.333 100.667z"/>
<path style="fill:#cae3ea; stroke:none;" d="M135 100L136 101L135 100M131 105L139 100L131 105M131 101L132 102L131 101z"/>
<path style="fill:#69d6f7; stroke:none;" d="M132 101C122.09 112.225 108.514 124.515 102 138L125.154 111.87L132 101z"/>
<path style="fill:#a4abb5; stroke:none;" d="M14 102L15 103L14 102M17 105L18 106L17 105z"/>
<path style="fill:#51b1f9; stroke:none;" d="M128 105L129 106L128 105z"/>
<path style="fill:#a4abb5; stroke:none;" d="M124 114L134 106C129.377 104.955 126.075 110.467 124 114z"/>
<path style="fill:#cae3ea; stroke:none;" d="M127 106L128 107L127 106M131 106L130 110L134 106L131 106z"/>
<path style="fill:#a4abb5; stroke:none;" d="M20 107L21 108L20 107z"/>
<path style="fill:#69d6f7; stroke:none;" d="M91.6667 107.333L92.3333 107.667L91.6667 107.333z"/>
<path style="fill:#cae3ea; stroke:none;" d="M129 107L130 108L129 107z"/>
<path style="fill:#a4abb5; stroke:none;" d="M21 108L22 109L21 108z"/>
<path style="fill:#69d6f7; stroke:none;" d="M78 108L78 109L82 109L82 110L36 114C46.9859 125.754 60.6614 135.61 73 145.92C76.2111 148.603 82.2554 156.115 86.9853 154.694C100.211 150.72 95.8542 130.738 94.5756 121C94.1973 118.119 94.8363 112.958 92.9722 110.603C90.5909 107.595 81.5724 108.074 78 108z"/>
<path style="fill:#cae3ea; stroke:none;" d="M125 108L126 109L125 108z"/>
<path style="fill:#51b1f9; stroke:none;" d="M127 108L128 109L127 108z"/>
<path style="fill:#69d6f7; stroke:none;" d="M65 109L65 110L70 110L65 109z"/>
<path style="fill:#a4abb5; stroke:none;" d="M23 110L24 111L23 110z"/>
<path style="fill:#69d6f7; stroke:none;" d="M53 110L53 111L59 111L53 110z"/>
<path style="fill:#a4abb5; stroke:none;" d="M108 110L108 113L109 113L108 110M124 110L125 111L124 110z"/>
<path style="fill:#cae3ea; stroke:none;" d="M129.333 110.667L129.667 111.333L129.333 110.667z"/>
<path style="fill:#51b1f9; stroke:none;" d="M37.6667 111.333L38.3333 111.667L37.6667 111.333z"/>
<path style="fill:#cae3ea; stroke:none;" d="M125 111L126 112L125 111z"/>
<path style="fill:#a4abb5; stroke:none;" d="M26 112L27 113L26 112z"/>
<path style="fill:#51b1f9; stroke:none;" d="M122 112L123 113L122 112z"/>
<path style="fill:#cae3ea; stroke:none;" d="M124 112L125 113L124 112M128 112L129 113L128 112z"/>
<path style="fill:#a4abb5; stroke:none;" d="M27 113L28 114L27 113z"/>
<path style="fill:#cae3ea; stroke:none;" d="M119 120L122 118L117 125L117 122L116 122L116 125L115 126L113 125L112 126L111 130L112 131L128 113C123.492 113.912 121.144 115.967 119 120M120 114L121 115L120 114z"/>
<path style="fill:#51b1f9; stroke:none;" d="M122 114L123 115L122 114z"/>
<path style="fill:#a4abb5; stroke:none;" d="M29 115L30 116L29 115M118 117L119 118L118 117M119 118L120 119L119 118M121 118L117 125L121 118M106.333 119.667L106.667 120.333L106.333 119.667M116 119L117 120L116 119M35 120L36 121L35 120z"/>
<path style="fill:#cae3ea; stroke:none;" d="M115 120L116 121L115 120M114 121L115 122L114 121z"/>
<path style="fill:#a4abb5; stroke:none;" d="M105 122L106 123L105 122M39 123L40 124L39 123M105 124L106 125L105 124z"/>
<path style="fill:#51b1f9; stroke:none;" d="M112 124L113 125L112 124z"/>
<path style="fill:#a4abb5; stroke:none;" d="M115 124L116 125L115 124M114 125L115 126L114 125M116 125L117 126L116 125M43 126L44 127L43 126M105 126L106 127L105 126M113 126L114 127L113 126M44 127L45 128L44 127M112 127L113 128L112 127M111 128L112 129L111 128M46 129L47 130L46 129M110 129L108 134C110.481 132.461 111.557 131.636 110 129z"/>
<path style="fill:#cae3ea; stroke:none;" d="M109 130L110 131L109 130z"/>
<path style="fill:#a4abb5; stroke:none;" d="M49 131L50 132L49 131M104 131L105 132L104 131z"/>
<path style="fill:#cae3ea; stroke:none;" d="M106 131L107 132L106 131M108 131L109 132L108 131z"/>
<path style="fill:#a4abb5; stroke:none;" d="M50 132L51 133L50 132M52 134L53 135L52 134M103 134L104 135L103 134M107 134L106 136L107 134M55 136L56 137L55 136M56 137L57 138L56 137M104.667 137.333L105.333 137.667L104.667 137.333M58 138L59 139L58 138M103 139L104 140L103 139M61 141L62 142L61 141M62 142L63 143L62 142M100 146L101 147L100 146M68 147L69 148L68 147M98 148L99 149L98 148M97 149L98 150L97 149M72 150L73 151L72 150M75.3333 152.667L75.6667 153.333L75.3333 152.667M95 152L96 153L95 152M93 154L94 155L93 154M78 155L79 156L78 155M79 156L80 157L79 156M81 158L82 159L81 158M89 159L90 160L89 159z"/>
</svg>
